<?xml version="1.0" standalone="no"?>
<!DOCTYPE svg PUBLIC "-//W3C//DTD SVG 20010904//EN"
 "http://www.w3.org/TR/2001/REC-SVG-20010904/DTD/svg10.dtd">
<svg version="1.0" xmlns="http://www.w3.org/2000/svg"
 width="512.000000pt" height="512.000000pt" viewBox="0 0 512.000000 512.000000"
 preserveAspectRatio="xMidYMid meet">
<metadata>
Created by potrace 1.11, written by Peter Selinger 2001-2013
</metadata>
<g transform="translate(0.000000,512.000000) scale(0.100000,-0.100000)"
fill="#000000" stroke="none">
<path d="M4278 4899 c16 -17 16 -37 0 -21 -14 14 -42 16 -33 2 3 -6 -1 -7 -9
-4 -9 3 -13 11 -9 18 3 6 -4 2 -17 -9 -13 -11 -20 -15 -17 -9 4 7 0 14 -8 18
-8 3 -15 0 -15 -6 0 -9 -3 -9 -11 -1 -8 8 -20 8 -34 3 -13 -5 -26 -6 -30 -2
-4 4 -17 7 -30 7 -20 1 -22 -2 -12 -14 10 -12 9 -13 -10 -3 -29 16 -46 15 -37
0 5 -9 2 -8 -10 1 -12 10 -20 11 -28 3 -8 -8 -16 -7 -29 1 -15 9 -24 9 -40 -1
-12 -8 -18 -9 -14 -3 3 6 3 11 -2 12 -4 0 -18 2 -31 3 -17 2 -21 -1 -17 -13 5
-13 4 -13 -12 1 -19 17 -47 13 -36 -5 3 -6 -4 -3 -17 6 -16 11 -29 13 -46 7
-14 -6 -26 -6 -29 0 -8 13 -25 13 -25 -1 0 -5 5 -7 12 -3 7 5 8 3 4 -5 -6 -9
-12 -9 -24 2 -19 16 -46 12 -35 -6 3 -6 -4 -3 -17 6 -16 11 -29 13 -45 7 -15
-6 -27 -4 -35 3 -10 9 -11 9 -5 -2 6 -10 2 -12 -13 -7 -11 4 -23 2 -27 -3 -4
-7 -13 -6 -25 2 -16 9 -24 9 -41 -1 -12 -8 -18 -9 -14 -3 7 12 7 12 -47 15
-31 1 -35 -1 -25 -13 10 -12 9 -13 -10 -3 -27 15 -46 15 -38 2 3 -6 -1 -7 -9
-4 -9 3 -13 11 -9 18 3 6 -4 2 -17 -9 -13 -11 -20 -15 -17 -9 4 7 0 14 -8 18
-8 3 -15 0 -15 -6 0 -9 -3 -9 -11 -1 -8 8 -20 8 -34 3 -13 -5 -26 -6 -30 -2
-4 4 -17 7 -30 7 -20 1 -22 -2 -12 -14 10 -12 9 -13 -10 -3 -29 16 -46 15 -37
0 5 -9 2 -8 -10 1 -12 10 -20 11 -28 3 -8 -8 -16 -7 -29 1 -15 9 -24 9 -40 -1
-12 -8 -18 -9 -14 -3 3 6 3 11 -2 12 -4 0 -18 2 -31 3 -17 2 -21 -1 -17 -13 5
-13 4 -13 -12 1 -19 17 -47 13 -36 -5 3 -6 -4 -3 -17 6 -16 11 -29 13 -46 7
-14 -6 -26 -6 -29 0 -8 13 -25 13 -25 -1 0 -5 5 -7 12 -3 7 5 8 3 4 -5 -6 -9
-12 -9 -24 2 -19 16 -46 12 -35 -6 3 -6 -4 -3 -17 6 -16 11 -29 13 -45 7 -15
-6 -27 -4 -35 3 -10 9 -11 9 -5 -2 6 -10 2 -12 -13 -7 -11 4 -23 2 -27 -3 -4
-7 -13 -6 -25 2 -16 9 -24 9 -41 -1 -12 -8 -18 -9 -14 -3 7 12 7 12 -47 15
-31 1 -35 -1 -25 -13 10 -12 9 -13 -10 -3 -27 15 -46 15 -38 2 3 -6 -1 -7 -9
-4 -9 3 -13 11 -9 18 3 6 -4 2 -17 -9 -13 -11 -20 -15 -17 -9 4 7 0 14 -8 18
-8 3 -15 0 -15 -6 0 -9 -3 -9 -11 -1 -8 8 -20 8 -34 3 -13 -5 -26 -6 -30 -2
-4 4 -17 7 -30 7 -20 1 -22 -2 -12 -14 10 -12 9 -13 -10 -3 -29 16 -46 15 -37
0 5 -9 2 -8 -10 1 -12 10 -20 11 -28 3 -8 -8 -16 -7 -29 1 -15 9 -24 9 -40 -1
-12 -8 -18 -9 -14 -3 3 6 3 11 -2 12 -4 0 -18 2 -31 3 -17 2 -21 -1 -17 -13 5
-13 4 -13 -12 1 -19 17 -47 13 -36 -5 3 -6 -4 -3 -17 6 -16 11 -29 13 -46 7
-14 -6 -26 -6 -29 0 -8 13 -25 13 -25 -1 0 -5 5 -7 12 -3 7 5 8 3 4 -5 -6 -9
-12 -9 -24 2 -19 16 -46 12 -35 -6 3 -6 -4 -3 -17 6 -16 11 -29 13 -46 7 -13
-5 -24 -7 -24 -4 0 4 -7 1 -15 -6 -10 -9 -15 -9 -15 -1 0 13 -22 10 -32 -4 -5
-6 -8 -5 -8 4 0 10 -3 11 -14 2 -10 -8 -16 -9 -21 -1 -4 6 -13 7 -23 1 -9 -4
-25 -7 -35 -6 -9 2 -15 0 -12 -5 8 -13 -21 -20 -33 -8 -8 8 -14 5 -20 -12 -7
-19 -10 -21 -15 -7 -9 23 -22 21 -47 -5 -19 -21 -20 -21 -20 -2 -1 16 -3 16
-15 -6 -13 -22 -20 -20 -16 4 1 5 -5 4 -13 -4 -19 -15 -21 -24 -3 -14 7 4 9 3
4 -2 -5 -5 -12 -9 -15 -9 -4 0 -13 -4 -21 -9 -9 -6 -12 -5 -7 2 3 6 -1 9 -11
7 -10 -2 -21 -4 -25 -4 -5 -1 -8 -6 -8 -12 0 -8 6 -7 18 2 15 13 16 12 4 -3
-7 -9 -24 -15 -37 -13 -14 1 -25 -2 -25 -6 0 -5 -6 -9 -13 -9 -7 0 -23 -9 -35
-20 -12 -12 -22 -18 -22 -14 0 3 -7 1 -15 -6 -8 -6 -19 -9 -24 -5 -7 4 -8 -1
-4 -11 4 -12 3 -15 -5 -10 -8 4 -12 0 -13 -11 0 -11 -3 -13 -6 -5 -3 9 -12 6
-28 -12 -16 -17 -26 -21 -33 -14 -8 8 -9 5 -5 -11 4 -17 2 -20 -11 -15 -12 4
-16 0 -16 -15 0 -12 -5 -21 -11 -21 -5 0 -7 6 -3 13 5 8 2 8 -9 -2 -9 -7 -17
-19 -17 -27 0 -7 -9 -16 -20 -19 -11 -4 -17 -11 -14 -17 5 -7 1 -9 -9 -5 -9 3
-16 3 -16 -1 3 -20 -2 -33 -11 -27 -5 3 -10 -1 -10 -9 0 -9 -5 -16 -11 -16 -6
0 -9 -8 -7 -18 3 -11 0 -19 -8 -19 -7 0 -10 5 -7 10 3 6 1 7 -6 3 -9 -6 -9
-11 0 -22 7 -9 8 -14 3 -13 -21 4 -35 -2 -29 -11 3 -5 1 -10 -6 -10 -8 0 -9
-3 0 -13 14 -18 2 -30 -16 -15 -8 6 -13 7 -12 2 5 -26 -2 -46 -14 -41 -8 3
-14 -1 -14 -9 0 -7 5 -10 11 -7 6 4 5 -1 -3 -10 -7 -9 -10 -17 -5 -17 4 0 -3
-11 -16 -25 -13 -14 -19 -25 -14 -25 5 0 1 -5 -9 -11 -9 -5 -17 -21 -17 -35 0
-17 -4 -23 -12 -18 -7 4 -10 3 -5 -1 4 -5 -1 -18 -10 -29 -17 -20 -17 -20 0
-7 21 17 22 8 1 -13 -8 -9 -11 -16 -5 -16 6 0 11 -5 11 -11 0 -5 -4 -7 -10 -4
-5 3 -10 -1 -10 -10 0 -9 -4 -14 -8 -11 -4 2 -8 -4 -8 -14 0 -10 5 -16 11 -12
5 3 4 -1 -2 -10 -7 -8 -9 -19 -5 -23 4 -5 -1 -5 -11 -2 -13 5 -16 3 -10 -6 14
-22 12 -39 -3 -33 -9 3 -12 1 -9 -4 12 -19 14 -51 3 -44 -7 4 -8 -1 -3 -16 5
-15 3 -20 -3 -16 -6 3 -13 2 -16 -3 -4 -5 -1 -13 5 -17 8 -5 9 -3 4 7 -5 8 -4
10 0 6 13 -11 15 -38 3 -31 -7 4 -9 -8 -6 -34 2 -30 0 -38 -8 -31 -8 7 -10 1
-8 -21 3 -21 0 -29 -8 -24 -6 4 -8 3 -4 -4 3 -6 2 -13 -3 -17 -6 -3 -8 -12 -5
-20 4 -8 11 -12 16 -9 6 4 2 -5 -7 -20 -13 -19 -14 -26 -4 -26 8 0 5 -6 -7
-16 -10 -8 -13 -13 -6 -9 6 3 12 1 12 -4 0 -6 -5 -11 -11 -11 -5 0 -7 -5 -4
-10 4 -6 3 -16 -2 -23 -6 -7 -9 -33 -9 -59 1 -36 -3 -48 -14 -48 -12 0 -12 -2
-1 -9 8 -5 9 -11 3 -15 -5 -3 -9 -22 -8 -41 1 -19 -3 -37 -9 -39 -5 -3 -4 -5
3 -5 10 -1 9 -5 -3 -17 -12 -12 -13 -19 -4 -30 6 -8 8 -14 4 -14 -4 0 -1 -8 6
-17 11 -15 11 -16 -1 -5 -22 19 -30 14 -20 -13 6 -16 6 -27 -2 -31 -7 -5 -8
-3 -3 6 5 9 4 11 -4 6 -9 -6 -9 -11 -1 -21 8 -10 8 -15 0 -20 -8 -5 -8 -10 0
-20 8 -10 5 -19 -12 -36 -13 -12 -17 -19 -10 -15 7 4 12 1 12 -8 0 -9 -4 -16
-9 -16 -4 0 -7 -15 -7 -32 1 -18 -3 -36 -8 -40 -7 -5 -6 -8 3 -8 11 0 10 -4
-4 -13 -14 -11 -15 -16 -5 -22 9 -6 11 -4 5 5 -5 9 -4 11 4 6 8 -6 9 -12 2
-20 -6 -7 -8 -16 -4 -19 3 -4 -1 -9 -10 -13 -13 -5 -14 -10 -6 -26 8 -15 8
-19 0 -14 -6 4 -11 0 -11 -9 0 -10 5 -13 13 -9 9 6 9 5 0 -7 -7 -9 -11 -25 -8
-38 2 -13 -2 -24 -10 -27 -11 -5 -12 -11 -5 -24 7 -13 6 -21 -2 -26 -7 -5 -8
-3 -3 6 5 9 4 11 -3 6 -8 -5 -9 -13 -2 -25 6 -12 5 -22 -2 -29 -9 -9 -9 -12 1
-12 7 0 9 -5 6 -10 -4 -6 -10 -8 -15 -5 -5 3 -11 1 -14 -4 -4 -5 -1 -13 5 -17
8 -5 9 -3 4 6 -6 9 -4 11 4 6 10 -6 9 -12 -1 -24 -15 -18 -17 -50 -5 -70 5 -7
2 -14 -7 -18 -11 -4 -13 -11 -7 -22 10 -20 3 -45 -10 -36 -5 3 -9 1 -9 -5 0
-5 6 -12 13 -14 6 -3 3 -6 -8 -6 -17 -1 -17 -3 -5 -11 13 -8 13 -10 0 -10 -10
0 -11 -3 -3 -11 14 -14 5 -41 -11 -32 -6 3 -6 1 1 -8 15 -15 17 -33 4 -24 -5
3 -12 1 -16 -5 -3 -5 2 -10 12 -11 10 0 13 -3 6 -5 -7 -3 -9 -12 -6 -21 5 -12
3 -14 -8 -8 -11 7 -11 5 1 -10 8 -10 10 -16 3 -12 -6 4 -14 3 -18 -3 -3 -5 -2
-10 2 -10 5 0 9 -9 9 -19 0 -11 -4 -17 -9 -14 -5 3 -7 0 -5 -8 3 -8 -1 -26 -9
-41 -8 -17 -9 -28 -3 -28 5 0 10 5 10 12 0 6 3 8 7 5 3 -4 -2 -17 -13 -29 -12
-14 -14 -18 -4 -13 12 6 12 5 3 -5 -6 -7 -9 -19 -6 -28 4 -10 2 -13 -5 -8 -6
3 -14 2 -17 -4 -4 -6 -1 -9 6 -8 6 2 12 -9 13 -24 1 -23 -1 -25 -14 -15 -8 6
-12 7 -8 3 4 -5 3 -15 -4 -23 -8 -10 -8 -12 4 -8 9 4 15 0 15 -9 0 -8 -3 -15
-6 -14 -19 2 -24 -4 -11 -12 9 -6 11 -10 3 -10 -7 0 -10 -7 -7 -15 4 -8 1 -21
-5 -29 -6 -7 -8 -16 -4 -20 4 -3 7 -19 8 -35 1 -22 -2 -28 -13 -23 -10 3 -13
1 -8 -6 4 -7 2 -12 -6 -12 -10 0 -9 -3 1 -9 13 -8 13 -12 0 -27 -12 -16 -12
-17 1 -9 13 8 13 7 1 -8 -9 -12 -10 -17 -2 -17 7 0 9 -5 6 -10 -5 -8 -12 -7
-23 2 -14 10 -13 8 1 -8 15 -18 16 -24 5 -35 -15 -16 -16 -28 -4 -48 6 -10 5
-12 -2 -7 -8 5 -12 -4 -12 -29 0 -20 -4 -34 -9 -31 -12 8 -8 -37 4 -46 6 -4 1
-8 -10 -8 -14 0 -16 -3 -7 -12 7 -7 8 -17 1 -30 -5 -10 -7 -18 -3 -18 3 0 0
-8 -7 -17 -10 -11 -10 -14 -1 -9 16 10 15 -3 -3 -37 -10 -19 -10 -26 -2 -22 7
4 3 -1 -7 -9 -11 -9 -15 -16 -10 -16 6 0 11 -7 11 -15 0 -8 -4 -15 -9 -15 -11
0 -6 -23 7 -32 6 -4 2 -8 -7 -8 -10 0 -18 -3 -19 -7 0 -5 -2 -16 -4 -26 -2 -9
1 -15 6 -11 11 6 12 -9 2 -20 -11 -11 -11 -76 0 -76 6 0 6 -4 -1 -12 -6 -7 -9
-31 -7 -53 1 -22 -3 -43 -9 -47 -6 -4 -7 -8 -1 -8 6 0 10 -15 9 -32 0 -18 4
-38 8 -45 5 -6 5 -14 -2 -18 -5 -3 -10 -11 -10 -16 0 -6 4 -8 9 -5 5 3 12 -1
15 -10 3 -8 2 -13 -3 -10 -5 3 -12 -1 -15 -10 -3 -8 -2 -12 4 -9 6 3 10 -1 10
-9 0 -9 6 -16 13 -16 8 0 7 -4 -3 -11 -12 -8 -12 -12 -2 -16 9 -3 10 -9 2 -18
-7 -9 -5 -16 7 -26 17 -13 17 -13 3 6 -14 19 -14 19 3 6 13 -10 15 -17 6 -27
-9 -11 -8 -14 0 -14 7 0 10 -4 6 -9 -3 -5 2 -16 10 -24 8 -9 15 -26 15 -40 0
-15 9 -28 23 -36 18 -9 18 -11 2 -6 -18 4 -18 3 3 -15 14 -11 20 -24 16 -31
-4 -8 -3 -9 4 -5 7 4 12 1 12 -9 0 -9 4 -13 10 -10 5 3 10 -3 10 -14 0 -11 9
-22 20 -26 11 -4 18 -10 16 -14 -4 -7 28 -41 38 -41 3 0 20 -14 38 -30 18 -17
39 -30 47 -30 7 0 20 -8 28 -17 8 -10 12 -12 8 -6 -4 9 -1 11 9 7 9 -3 16 -12
16 -20 0 -8 5 -14 11 -14 5 0 7 6 3 13 -5 7 0 6 11 -3 10 -8 20 -14 22 -12 3
2 8 0 11 -4 4 -4 1 -4 -7 1 -10 6 -12 4 -7 -4 6 -9 11 -9 22 0 9 7 14 8 13 3
-4 -21 2 -26 18 -13 11 10 14 10 9 2 -4 -8 -2 -13 4 -13 6 0 8 -5 4 -12 -6
-10 -4 -10 8 0 13 10 17 10 22 -4 4 -11 10 -13 19 -6 6 5 21 8 32 6 11 -3 30
-5 43 -7 12 -1 27 -9 32 -17 9 -13 10 -13 10 0 0 13 1 13 10 0 8 -12 10 -12
10 -1 0 10 3 11 14 2 7 -6 21 -9 30 -5 9 3 16 2 16 -3 0 -5 7 -10 15 -10 8 0
12 4 9 9 -3 4 0 8 5 8 6 0 11 -5 11 -11 0 -8 6 -7 17 2 15 12 16 12 10 -3 -4
-12 -2 -15 8 -11 8 3 13 8 11 12 -3 4 4 8 15 8 18 2 19 0 7 -15 -12 -15 -10
-15 14 1 32 20 45 22 30 4 -8 -10 -6 -13 8 -13 10 0 17 4 14 7 -2 4 0 10 6 14
5 3 10 1 10 -6 0 -7 3 -9 7 -6 3 4 12 2 19 -4 8 -7 14 -6 20 2 4 8 3 9 -4 5
-7 -4 -12 -3 -12 3 0 5 9 9 20 8 13 -1 19 -6 15 -16 -5 -12 -3 -12 11 0 20 17
44 20 44 6 0 -5 3 -7 7 -4 3 4 14 0 23 -8 14 -13 17 -13 17 0 0 8 -4 12 -9 9
-4 -3 -8 -1 -8 5 0 5 9 9 20 8 13 -1 19 -6 15 -16 -5 -12 -3 -12 11 0 20 17
44 20 44 6 0 -5 3 -7 7 -4 3 4 14 0 23 -8 14 -13 17 -13 17 0 0 8 -4 12 -9 9
-4 -3 -8 -1 -8 5 0 5 9 9 20 8 13 -1 19 -6 15 -16 -5 -12 -3 -12 11 0 20 17
44 20 44 6 0 -5 3 -7 7 -4 3 4 14 0 23 -8 14 -13 17 -13 17 0 0 8 -4 12 -9 9
-4 -3 -8 -1 -8 5 0 5 9 9 20 8 13 -1 19 -6 15 -16 -5 -12 -3 -12 11 0 20 17
44 20 44 6 0 -5 3 -7 7 -4 3 4 14 0 23 -8 14 -13 17 -13 17 0 0 8 -4 12 -9 9
-4 -3 -8 0 -8 5 0 14 17 14 25 1 4 -6 12 -7 18 -3 15 10 97 11 91 2 -2 -4 3
-9 11 -12 9 -4 12 -1 9 7 -3 7 2 13 10 13 8 0 13 -4 11 -8 -3 -4 2 -9 10 -12
9 -4 12 -1 9 7 -3 7 2 13 10 13 8 0 13 -4 11 -8 -3 -4 2 -9 10 -12 9 -4 12 -1
9 7 -3 7 2 13 10 13 8 0 13 -4 11 -8 -3 -4 2 -9 10 -12 9 -4 12 -1 9 7 -3 7 2
13 10 13 8 0 13 -4 11 -8 -3 -4 2 -9 10 -12 9 -4 12 -1 9 7 -3 7 2 13 10 13 8
0 13 -4 11 -8 -3 -4 2 -9 10 -12 9 -4 12 -1 9 7 -3 7 2 13 10 13 8 0 13 -4 11
-8 -3 -4 2 -9 10 -12 9 -4 12 -1 9 7 -3 7 2 13 10 13 8 0 13 -4 11 -8 -3 -3 4
-9 15 -12 11 -3 23 0 27 5 3 7 1 8 -5 4 -7 -4 -12 -3 -12 3 0 5 9 9 20 8 13
-1 19 -6 15 -16 -5 -12 -3 -12 11 0 20 17 44 20 44 6 0 -5 3 -7 7 -4 3 4 12 2
19 -4 8 -7 14 -6 20 2 4 8 3 9 -4 5 -7 -4 -12 -3 -12 3 0 5 9 9 20 8 13 -1 19
-6 15 -16 -5 -12 -3 -12 11 0 20 17 44 20 44 6 0 -5 3 -7 7 -4 3 4 12 2 19 -4
8 -7 14 -6 20 2 4 8 3 9 -4 5 -7 -4 -12 -3 -12 3 0 5 9 9 20 8 14 -1 19 -6 15
-16 -4 -10 1 -9 16 5 12 10 19 14 16 8 -9 -15 20 -27 29 -12 4 7 3 8 -4 4 -7
-4 -12 -3 -12 3 0 5 9 9 20 8 13 -1 19 -6 15 -16 -5 -12 -3 -12 11 0 20 17 44
20 44 6 0 -5 3 -7 7 -4 3 4 12 2 19 -4 8 -7 14 -6 20 2 4 8 3 9 -4 5 -7 -4
-12 -2 -12 3 0 14 17 14 25 1 4 -6 12 -7 18 -3 7 4 27 8 45 8 25 1 31 -2 27
-14 -4 -11 0 -9 16 5 12 10 19 13 15 7 -8 -14 6 -18 18 -6 9 10 56 12 51 2 -3
-4 2 -9 10 -12 9 -4 12 -1 9 7 -3 7 2 13 10 13 8 0 13 -4 11 -8 -3 -4 2 -9 10
-12 9 -4 12 -1 9 7 -3 7 2 13 10 13 8 0 13 -4 11 -8 -3 -4 2 -9 10 -12 9 -4
12 -1 9 7 -3 7 2 13 10 13 8 0 13 -4 11 -8 -3 -4 2 -9 10 -12 9 -4 12 -1 9 7
-3 7 2 13 10 13 8 0 13 -4 11 -8 -3 -4 2 -9 10 -12 9 -4 12 -1 9 7 -3 7 2 13
10 13 8 0 13 -4 11 -8 -3 -4 2 -9 10 -12 9 -4 12 -1 9 7 -3 7 2 13 10 13 8 0
13 -4 11 -8 -3 -4 2 -9 10 -12 9 -4 12 -1 9 7 -3 7 2 13 10 13 8 0 13 -4 11
-8 -3 -4 2 -10 11 -13 8 -3 12 -2 9 3 -3 5 -1 12 5 16 5 3 10 1 10 -6 0 -7 3
-9 7 -6 3 4 12 2 19 -4 8 -7 14 -6 20 2 4 8 3 9 -4 5 -7 -4 -12 -3 -12 3 0 5
9 9 20 8 13 -1 19 -6 15 -16 -5 -12 -3 -12 11 0 20 17 44 20 44 6 0 -5 3 -7 7
-4 3 4 14 0 23 -8 14 -13 17 -13 17 0 0 8 -4 12 -9 9 -4 -3 -8 -1 -8 5 0 5 9
9 20 8 13 -1 19 -6 15 -16 -5 -12 -3 -12 11 0 20 17 44 20 44 6 0 -5 3 -7 7
-4 3 4 14 0 23 -8 14 -13 17 -13 17 0 0 8 -4 12 -9 9 -4 -3 -8 -1 -8 5 0 5 9
9 20 8 13 -1 19 -6 15 -16 -5 -12 -3 -12 11 0 20 17 44 20 44 6 0 -5 3 -7 7
-4 3 4 14 0 23 -8 14 -13 17 -13 17 0 0 8 -4 12 -9 9 -4 -3 -8 -1 -8 5 0 5 9
9 20 8 13 -1 19 -6 15 -16 -5 -12 -3 -12 11 0 20 17 44 20 44 6 0 -5 3 -7 7
-4 3 4 14 0 23 -8 14 -13 17 -13 17 0 0 8 -4 12 -9 9 -4 -3 -8 -1 -8 5 0 5 9
9 20 8 14 -1 19 -6 15 -16 -5 -13 -3 -13 12 0 19 16 69 19 90 6 6 -4 14 -4 17
1 3 5 22 8 43 7 24 -1 43 5 51 14 8 9 11 11 8 5 -3 -7 1 -15 10 -18 10 -4 13
-2 8 6 -5 8 -2 9 10 5 11 -5 15 -3 10 5 -5 7 0 9 14 6 13 -4 22 -1 22 5 0 8 3
8 8 2 4 -5 13 -11 21 -13 11 -2 12 0 4 10 -9 10 -6 13 13 14 15 1 22 -2 18
-10 -3 -6 1 -3 9 7 16 20 31 23 22 4 -4 -6 0 -4 8 6 11 14 16 15 20 5 4 -10 6
-10 6 0 1 6 8 12 17 12 8 0 13 4 10 9 -3 5 10 8 28 6 27 -3 34 0 29 11 -3 8
-2 14 3 13 5 -1 14 0 19 1 6 1 17 3 25 4 8 0 14 8 12 16 -2 8 0 12 4 8 4 -4
14 -2 22 5 13 10 15 9 8 -3 -4 -8 1 -6 11 6 10 11 24 19 30 17 6 -2 17 5 25
15 7 10 21 18 30 16 11 -1 15 3 11 12 -3 8 1 14 11 14 9 0 19 7 23 16 5 13 7
13 14 2 6 -9 9 -7 9 9 0 17 4 21 17 16 11 -4 14 -3 9 5 -4 7 -1 12 8 12 8 0
18 5 22 12 4 7 3 8 -4 4 -7 -4 -12 -5 -12 -2 0 3 15 13 33 21 17 8 23 13 13
10 -16 -5 -17 -3 -6 10 7 8 16 12 21 9 5 -3 9 0 9 6 0 6 5 8 13 4 7 -5 6 0 -3
11 -8 10 -10 16 -5 14 12 -7 46 26 38 35 -4 3 -1 6 6 6 6 0 16 12 21 26 6 15
16 24 23 21 9 -3 13 3 13 17 -1 12 4 20 12 18 8 -1 11 2 7 8 -3 5 -2 10 4 10
6 0 8 7 5 15 -4 8 1 17 10 21 9 3 13 10 10 15 -3 5 0 9 7 9 8 0 8 4 -1 15 -11
13 -10 14 3 10 8 -4 18 -1 23 6 4 8 3 10 -4 5 -8 -5 -10 -2 -6 8 3 9 10 14 14
11 5 -3 6 5 2 17 -5 20 -3 21 10 10 14 -11 16 -10 11 8 -4 13 0 26 8 31 12 7
12 9 0 9 -11 0 -10 4 4 14 10 7 19 22 21 32 5 39 17 64 27 57 6 -4 7 -1 2 8
-12 19 -13 48 -2 46 5 -1 12 4 15 12 3 9 0 11 -9 6 -8 -5 -5 1 5 13 11 12 16
25 13 29 -4 3 -7 1 -7 -6 0 -7 -4 -9 -10 -6 -13 8 11 35 25 27 6 -2 5 1 -2 8
-9 10 -8 19 5 39 16 25 16 25 -1 12 -10 -8 -17 -9 -17 -3 0 6 4 14 10 17 5 3
15 15 21 27 8 15 8 19 0 14 -15 -10 -14 7 2 23 10 11 9 12 -2 6 -11 -6 -11 -3
2 15 12 17 14 28 6 43 -8 14 -8 18 0 13 6 -4 11 -4 12 1 0 4 2 18 5 31 3 16 0
21 -8 16 -10 -5 -10 -4 -1 6 6 7 9 19 6 28 -5 11 -3 13 8 7 12 -8 12 -6 0 8
-8 11 -9 17 -2 17 7 0 8 8 1 25 -7 19 -6 23 5 19 17 -7 24 23 13 54 -5 15 -4
21 2 17 6 -4 8 6 6 25 -2 17 0 33 5 36 14 8 10 26 -3 19 -7 -4 -6 -1 3 7 9 7
14 18 12 25 -2 6 1 14 7 18 8 5 8 11 -1 21 -8 10 -8 14 -1 14 7 0 9 7 5 17 -4
10 -2 14 5 9 6 -3 14 -1 18 5 4 8 3 9 -4 5 -7 -4 -12 -1 -12 9 0 10 -5 13 -12
9 -7 -4 -8 -3 -4 5 4 6 11 9 16 6 17 -11 20 28 3 41 -14 11 -14 13 -2 9 13 -5
16 2 15 39 -1 24 1 43 3 40 2 -2 10 4 17 14 9 12 9 21 2 29 -8 9 -7 13 3 13
11 0 11 2 -1 10 -8 5 -10 10 -5 10 6 0 10 20 9 44 -1 31 4 51 17 65 11 12 14
21 7 23 -8 3 -7 11 2 27 10 19 10 22 -2 15 -11 -6 -11 -5 1 9 10 13 11 21 3
30 -9 10 -8 19 3 34 8 11 11 24 7 28 -4 5 -1 5 6 1 6 -4 12 -2 12 3 0 6 -6 11
-12 11 -9 0 -10 3 -2 8 6 4 10 21 10 37 -1 17 4 41 11 55 10 19 10 26 0 32 -8
5 -5 8 8 8 17 0 17 2 5 10 -13 9 -13 10 0 10 13 0 13 1 0 10 -11 7 -11 10 -2
10 7 0 10 5 7 10 -3 6 0 10 7 10 8 0 9 3 3 8 -13 9 -13 27 -1 39 5 5 6 2 1 -6
-5 -9 -4 -12 3 -7 6 4 9 13 6 21 -4 8 -10 12 -15 9 -5 -3 -9 0 -9 5 0 6 7 11
15 11 8 0 14 3 14 8 -1 4 -1 9 0 12 1 3 4 29 6 58 3 29 10 62 16 73 9 17 8 20
-3 13 -8 -5 -6 3 6 20 10 16 13 25 7 22 -6 -4 -11 0 -11 9 0 10 5 13 13 9 7
-5 6 0 -3 11 -9 11 -10 16 -2 11 6 -4 12 -2 12 3 0 6 -6 11 -12 11 -7 0 -2 7
10 16 18 13 21 19 11 30 -6 8 -8 14 -3 14 5 0 10 11 10 25 1 14 -2 22 -8 19
-6 -4 -5 3 1 15 7 11 9 21 5 21 -3 0 -1 7 6 15 6 8 9 19 5 25 -3 5 -2 10 4 10
5 0 8 8 6 18 -1 9 2 22 7 29 6 7 5 14 -3 18 -8 6 -7 10 2 16 11 7 12 12 2 28
-10 16 -9 22 4 33 10 8 14 8 10 1 -4 -6 -4 -14 1 -17 4 -2 8 6 8 19 0 13 -4
21 -9 18 -5 -3 -5 3 1 13 5 11 9 30 8 44 -1 14 3 28 8 32 9 6 13 26 19 98 1
14 6 30 9 36 4 6 4 14 1 18 -4 3 -7 15 -8 26 -1 15 2 17 11 9 9 -8 11 -5 7 12
-5 17 -3 20 8 14 11 -7 12 -6 2 6 -10 12 -10 18 -1 27 7 7 8 12 2 12 -6 0 -11
7 -11 15 0 8 5 11 10 8 6 -4 8 0 4 10 -4 10 1 21 11 27 13 9 14 11 1 7 -9 -3
-16 1 -16 9 0 7 4 11 9 7 6 -3 8 3 7 13 -2 11 0 25 4 32 5 7 3 12 -5 12 -9 0
-9 3 2 10 8 5 11 10 6 10 -6 0 -1 7 10 16 10 8 14 13 7 9 -16 -8 -10 64 6 74
15 10 3 43 -13 35 -6 -3 -4 0 5 8 11 8 14 20 9 33 -4 11 -3 23 4 27 8 5 7 8
-2 8 -10 0 -10 3 0 14 9 10 15 11 20 2 4 -6 8 6 8 27 0 33 -6 41 -31 39 -3 -1
-6 6 -6 14 0 8 5 14 11 14 6 0 4 5 -4 10 -8 5 -10 10 -4 10 6 0 11 7 11 15 0
8 -4 12 -8 10 -4 -3 -9 2 -13 10 -3 8 0 17 6 21 7 4 8 3 4 -4 -4 -7 -2 -12 3
-12 17 0 13 20 -5 27 -13 5 -13 7 -2 14 10 7 10 9 1 9 -7 0 -13 5 -13 11 0 5
5 7 10 4 6 -3 10 -1 10 4 0 6 -8 11 -17 11 -15 0 -16 2 -3 10 8 5 10 10 3 10
-6 0 -9 9 -6 20 3 12 0 20 -7 20 -7 0 -10 7 -6 15 3 8 -2 21 -10 30 -11 10
-12 15 -3 15 7 0 4 7 -7 18 -17 15 -22 30 -26 70 -1 6 -8 12 -15 12 -10 0 -12
7 -8 20 5 15 2 18 -15 15 -18 -3 -20 -1 -10 10 8 10 8 15 -1 21 -8 5 -10 3 -4
-7 5 -8 -1 -6 -12 4 -13 11 -19 27 -17 40 2 12 2 16 -2 10 -4 -10 -9 -10 -20
1 -8 8 -14 20 -14 26 0 7 -7 9 -17 6 -10 -4 -14 -4 -11 0 11 10 -49 69 -72 70
-36 3 -40 4 -40 15 0 8 5 7 15 -1 13 -11 14 -10 10 2 -4 9 -17 16 -30 16 -13
0 -31 7 -40 16 -19 19 -29 21 -19 4 6 -10 5 -10 -8 -1 -8 7 -19 9 -24 5 -4 -4
-3 1 4 10 11 13 11 16 0 14 -7 -1 -20 -6 -28 -10 -8 -5 -12 -6 -8 -1 4 4 1 14
-7 21 -19 19 -26 18 -18 -3 5 -17 5 -17 -8 -1 -8 10 -27 19 -44 20 -16 1 -35
9 -41 17 -9 11 -12 12 -19 1 -6 -9 -4 -11 5 -5 9 5 11 4 6 -3 -5 -9 -12 -9
-26 0 -10 7 -16 17 -12 23 3 5 -2 4 -11 -4 -12 -9 -21 -10 -29 -3 -16 13 -28
13 -50 1 -14 -8 -18 -6 -18 8 0 14 -2 15 -9 5 -10 -17 -19 -16 -51 5 -15 9
-20 10 -12 2z m543 -176 c13 -16 12 -17 -3 -4 -17 13 -22 21 -14 21 2 0 10 -8
17 -17z m-4321 -1003 c0 -5 -5 -10 -11 -10 -5 0 -7 5 -4 10 3 6 8 10 11 10 2
0 4 -4 4 -10z m4151 -2197 c13 -16 12 -17 -3 -4 -17 13 -22 21 -14 21 2 0 10
-8 17 -17z m-4571 -193 c0 -5 -5 -10 -11 -10 -5 0 -7 5 -4 10 3 6 8 10 11 10
2 0 4 -4 4 -10z"/>
<path d="M635 4280 c-3 -5 -2 -10 4 -10 5 0 13 5 16 10 3 6 2 10 -4 10 -5 0
-13 -4 -16 -10z"/>
<path d="M4830 2520 c0 -5 5 -10 11 -10 5 0 7 5 4 10 -3 6 -8 10 -11 10 -2 0
-4 -4 -4 -10z"/>
<path d="M4807 2397 c-3 -8 1 -14 8 -14 7 0 11 6 8 14 -3 7 -6 13 -8 13 -2 0
-5 -6 -8 -13z"/>
<path d="M4780 2241 c0 -6 4 -13 10 -16 6 -3 7 1 4 9 -7 18 -14 21 -14 7z"/>
<path d="M160 1920 c0 -5 5 -10 11 -10 5 0 7 5 4 10 -3 6 -8 10 -11 10 -2 0
-4 -4 -4 -10z"/>
<path d="M627 359 c7 -7 15 -10 18 -7 3 3 -2 9 -12 12 -14 6 -15 5 -6 -5z"/>
<path d="M670 350 c0 -5 5 -10 10 -10 6 0 10 5 10 10 0 6 -4 10 -10 10 -5 0
-10 -4 -10 -10z"/>
<path d="M1546 328 c3 -5 10 -6 15 -3 13 9 11 12 -6 12 -8 0 -12 -4 -9 -9z"/>
<path d="M1587 329 c7 -7 15 -10 18 -7 3 3 -2 9 -12 12 -14 6 -15 5 -6 -5z"/>
<path d="M2547 329 c7 -7 15 -10 18 -7 3 3 -2 9 -12 12 -14 6 -15 5 -6 -5z"/>
</g>
</svg>
