<?xml version="1.0" standalone="no"?>
<!DOCTYPE svg PUBLIC "-//W3C//DTD SVG 20010904//EN"
 "http://www.w3.org/TR/2001/REC-SVG-20010904/DTD/svg10.dtd">
<svg version="1.0" xmlns="http://www.w3.org/2000/svg"
 width="512.000000pt" height="512.000000pt" viewBox="0 0 512.000000 512.000000"
 preserveAspectRatio="xMidYMid meet">
<metadata>
Created by potrace 1.11, written by Peter Selinger 2001-2013
</metadata>
<g transform="translate(0.000000,512.000000) scale(0.100000,-0.100000)"
fill="#000000" stroke="none">
<path d="M1455 4863 c-110 -22 -233 -63 -320 -107 -261 -130 -468 -379 -559
-671 -8 -27 -22 -72 -31 -99 -8 -27 -15 -60 -15 -73 0 -12 -4 -42 -10 -65 -15
-68 -32 -158 -40 -218 -4 -30 -13 -82 -20 -115 -6 -33 -16 -82 -20 -110 -5
-27 -14 -77 -21 -110 -6 -33 -15 -90 -20 -127 -4 -38 -10 -72 -13 -77 -3 -5
-10 -37 -16 -72 -5 -35 -17 -104 -26 -154 -8 -49 -17 -103 -20 -120 -4 -27
-19 -112 -44 -250 -5 -27 -16 -93 -25 -145 -9 -52 -23 -125 -31 -161 -8 -37
-14 -79 -14 -95 0 -15 -4 -41 -9 -58 -5 -17 -17 -76 -26 -131 -9 -55 -23 -130
-31 -166 -8 -37 -14 -79 -14 -93 0 -14 -4 -45 -10 -68 -24 -109 -33 -159 -60
-370 -12 -96 -9 -139 20 -308 10 -55 48 -159 66 -181 8 -8 14 -19 14 -24 0 -9
75 -112 99 -135 71 -69 188 -134 305 -170 153 -47 99 -45 1616 -45 1491 0
1471 -1 1601 40 26 8 56 15 67 15 12 0 23 4 26 9 3 5 18 12 33 16 46 11 178
80 245 128 109 78 235 213 297 318 47 81 111 223 111 248 0 9 4 21 10 27 11
11 17 38 50 209 11 61 27 142 35 180 8 39 19 104 25 145 7 41 16 95 22 120 5
25 13 75 18 112 5 38 11 72 15 78 3 5 10 40 16 77 22 153 27 183 37 229 6 27
18 92 27 144 9 52 20 118 25 145 13 68 31 170 40 230 15 91 40 229 55 310 9
44 20 107 24 140 5 33 14 87 21 120 6 33 16 83 20 110 5 28 14 77 21 110 6 33
15 87 19 120 4 33 12 78 18 100 6 22 15 78 21 126 56 444 -122 766 -489 883
-149 47 -114 46 -1636 45 -1197 -1 -1440 -4 -1499 -16z m307 -1004 c3 -37 11
-161 17 -275 6 -115 16 -272 21 -349 20 -282 32 -557 36 -840 3 -159 7 -300
10 -312 3 -15 12 -23 24 -23 21 0 28 13 65 110 10 25 21 54 26 65 4 11 24 63
45 115 36 93 229 556 264 635 46 102 70 157 103 235 19 47 49 117 67 155 18
39 48 108 67 155 31 75 48 114 98 225 7 17 25 57 39 90 15 33 34 66 43 73 11
8 52 12 114 12 123 0 129 -5 129 -103 0 -40 5 -128 10 -197 6 -69 15 -190 20
-270 34 -509 41 -621 50 -760 5 -85 9 -231 10 -325 0 -188 4 -215 30 -215 18
0 23 9 130 285 67 172 174 430 222 533 16 36 51 117 78 181 46 111 75 177 121
280 11 24 29 64 39 90 10 25 30 73 44 106 80 180 93 209 126 290 18 44 40 86
48 93 23 18 275 17 291 -1 6 -8 7 -18 2 -23 -4 -5 -25 -49 -46 -99 -20 -49
-46 -108 -56 -130 -56 -126 -73 -165 -89 -206 -10 -26 -28 -66 -39 -90 -67
-149 -81 -181 -81 -184 0 -2 -14 -34 -31 -72 -60 -133 -67 -149 -102 -233 -19
-47 -49 -115 -66 -152 -17 -37 -42 -95 -56 -128 -14 -33 -38 -89 -54 -123 -16
-34 -44 -100 -64 -147 -19 -47 -49 -115 -66 -152 -17 -37 -42 -96 -57 -130
-14 -35 -35 -82 -45 -105 -11 -24 -27 -62 -38 -85 -10 -24 -31 -71 -45 -106
-15 -34 -40 -92 -56 -127 -16 -35 -50 -115 -76 -177 -26 -62 -54 -121 -62
-130 -13 -15 -33 -18 -123 -18 -59 0 -110 4 -114 9 -3 5 -10 81 -15 168 -5 87
-17 262 -25 388 -8 127 -19 309 -25 405 -5 96 -14 240 -20 320 -5 80 -10 242
-10 361 0 191 -2 218 -16 223 -20 8 -41 -8 -50 -37 -7 -24 -90 -240 -104 -272
-5 -11 -54 -128 -108 -260 -55 -132 -114 -271 -132 -310 -18 -38 -48 -108 -67
-155 -20 -47 -44 -103 -53 -125 -52 -114 -75 -168 -107 -245 -20 -47 -44 -103
-53 -125 -39 -86 -69 -154 -106 -240 -21 -49 -43 -93 -48 -98 -6 -4 -63 -6
-126 -5 l-115 3 -7 75 c-3 41 -11 165 -17 275 -6 110 -16 261 -21 335 -10 131
-22 323 -40 655 -5 88 -16 273 -25 410 -8 138 -22 369 -30 515 -8 146 -17 280
-20 298 -11 59 0 63 164 60 l146 -3 7 -66z"/>
</g>
</svg>
